<svg xmlns="http://www.w3.org/2000/svg" width="280" height="280" viewBox="0 0 280 280">
  <rect width="280" height="280" fill="#f9fafb" rx="10"/>
  <rect width="280" height="280" fill="none" rx="10" stroke="#f97316" stroke-width="2.5" opacity="0.4"/>
  <path d="M42.0 257.6 L42.0 168.0 L42.0 22.4 L70.0 61.6 L98.0 106.4 L120.4 134.4 L140.0 162.4 L159.6 134.4 L182.0 106.4 L210.0 61.6 L238.0 22.4 L238.0 168.0 L238.0 257.6" stroke="#374151" stroke-width="61.6" stroke-linecap="round" stroke-linejoin="round" fill="none" opacity="0.10"/>
  <path d="M42.0 257.6 L42.0 168.0 L42.0 22.4 L70.0 61.6 L98.0 106.4 L120.4 134.4 L140.0 162.4 L159.6 134.4 L182.0 106.4 L210.0 61.6 L238.0 22.4 L238.0 168.0 L238.0 257.6" stroke="#f97316" stroke-width="11.8" stroke-linecap="round" stroke-linejoin="round" fill="none" opacity="0.7"/>
  <circle cx="42.0" cy="257.6" r="10.0" fill="#4a90d9"/>
  <circle cx="42.0" cy="168.0" r="10.0" fill="rgba(74,144,217,0.4)"/>
  <circle cx="42.0" cy="22.4" r="10.0" fill="rgba(74,144,217,0.4)"/>
  <circle cx="70.0" cy="61.6" r="10.0" fill="rgba(74,144,217,0.4)"/>
  <circle cx="98.0" cy="106.4" r="10.0" fill="rgba(74,144,217,0.4)"/>
  <circle cx="120.4" cy="134.4" r="10.0" fill="rgba(74,144,217,0.4)"/>
  <circle cx="140.0" cy="162.4" r="10.0" fill="rgba(74,144,217,0.4)"/>
  <circle cx="159.6" cy="134.4" r="10.0" fill="rgba(74,144,217,0.4)"/>
  <circle cx="182.0" cy="106.4" r="10.0" fill="rgba(74,144,217,0.4)"/>
  <circle cx="210.0" cy="61.6" r="10.0" fill="rgba(74,144,217,0.4)"/>
  <circle cx="238.0" cy="22.4" r="10.0" fill="rgba(74,144,217,0.4)"/>
  <circle cx="238.0" cy="168.0" r="10.0" fill="rgba(74,144,217,0.4)"/>
  <circle cx="238.0" cy="257.6" r="10.0" fill="rgba(74,144,217,0.4)"/>
  <line x1="42.0" y1="257.6" x2="42.0" y2="221.2" stroke="#2563eb" stroke-width="2.2" stroke-dasharray="4 3"/>
  <polygon points="42.0,221.2 51.0,230.2 33.0,230.2" fill="#2563eb"/>
  <text x="140" y="275" text-anchor="middle" font-size="12" fill="#f97316" font-weight="bold" font-family="sans-serif">Medio</text>
</svg>