<svg xmlns="http://www.w3.org/2000/svg" width="280" height="280" viewBox="0 0 280 280">
  <rect width="280" height="280" fill="#f9fafb" rx="10"/>
  <rect width="280" height="280" fill="none" rx="10" stroke="#22c55e" stroke-width="2.5" opacity="0.4"/>
  <path d="M28.0 238.0 L47.6 201.6 L70.0 168.0 L92.4 134.4 L112.0 106.4 L126.0 78.4 L140.0 50.4 L154.0 78.4 L168.0 106.4 L187.6 134.4 L210.0 168.0 L232.4 201.6 L252.0 238.0" stroke="#374151" stroke-width="61.6" stroke-linecap="round" stroke-linejoin="round" fill="none" opacity="0.10"/>
  <path d="M28.0 238.0 L47.6 201.6 L70.0 168.0 L92.4 134.4 L112.0 106.4 L126.0 78.4 L140.0 50.4 L154.0 78.4 L168.0 106.4 L187.6 134.4 L210.0 168.0 L232.4 201.6 L252.0 238.0" stroke="#22c55e" stroke-width="11.8" stroke-linecap="round" stroke-linejoin="round" fill="none" opacity="0.7"/>
  <circle cx="28.0" cy="238.0" r="10.0" fill="#4a90d9"/>
  <circle cx="47.6" cy="201.6" r="10.0" fill="rgba(74,144,217,0.4)"/>
  <circle cx="70.0" cy="168.0" r="10.0" fill="rgba(74,144,217,0.4)"/>
  <circle cx="92.4" cy="134.4" r="10.0" fill="rgba(74,144,217,0.4)"/>
  <circle cx="112.0" cy="106.4" r="10.0" fill="rgba(74,144,217,0.4)"/>
  <circle cx="126.0" cy="78.4" r="10.0" fill="rgba(74,144,217,0.4)"/>
  <circle cx="140.0" cy="50.4" r="10.0" fill="rgba(74,144,217,0.4)"/>
  <circle cx="154.0" cy="78.4" r="10.0" fill="rgba(74,144,217,0.4)"/>
  <circle cx="168.0" cy="106.4" r="10.0" fill="rgba(74,144,217,0.4)"/>
  <circle cx="187.6" cy="134.4" r="10.0" fill="rgba(74,144,217,0.4)"/>
  <circle cx="210.0" cy="168.0" r="10.0" fill="rgba(74,144,217,0.4)"/>
  <circle cx="232.4" cy="201.6" r="10.0" fill="rgba(74,144,217,0.4)"/>
  <circle cx="252.0" cy="238.0" r="10.0" fill="rgba(74,144,217,0.4)"/>
  <line x1="28.0" y1="238.0" x2="45.3" y2="206.0" stroke="#2563eb" stroke-width="2.2" stroke-dasharray="4 3"/>
  <polygon points="45.3,206.0 48.9,218.2 33.1,209.6" fill="#2563eb"/>
  <text x="140" y="275" text-anchor="middle" font-size="12" fill="#22c55e" font-weight="bold" font-family="sans-serif">Fácil</text>
</svg>