<svg xmlns="http://www.w3.org/2000/svg" width="320" height="320" viewBox="0 0 320 320">
  <rect width="320" height="320" fill="#f9fafb" rx="12"/>
  <path d="M96.0 25.6 L96.0 160.0 L96.0 294.4" stroke="#374151" stroke-width="70.4" stroke-linecap="round" stroke-linejoin="round" fill="none" opacity="0.12"/>
  <path d="M96.0 294.4 L176.0 294.4 L256.0 294.4" stroke="#374151" stroke-width="70.4" stroke-linecap="round" stroke-linejoin="round" fill="none" opacity="0.12"/>
  <path d="M96.0 25.6 L96.0 160.0 L96.0 294.4" stroke="rgba(239,68,68,0.65)" stroke-width="13.4" stroke-linecap="round" stroke-linejoin="round" fill="none"/>
  <path d="M96.0 294.4 L176.0 294.4 L256.0 294.4" stroke="rgba(239,68,68,0.65)" stroke-width="13.4" stroke-linecap="round" stroke-linejoin="round" fill="none"/>
  <circle cx="96.0" cy="25.6" r="12.3" fill="#4a90d9"/>
  <circle cx="96.0" cy="160.0" r="12.3" fill="rgba(74,144,217,0.45)"/>
  <circle cx="96.0" cy="294.4" r="12.3" fill="rgba(74,144,217,0.45)"/>
  <text x="96.0" y="25.6" text-anchor="middle" dominant-baseline="middle" font-size="20.2" font-weight="bold" fill="#1e40af" font-family="sans-serif">1</text>
  <line x1="96.0" y1="25.6" x2="96.0" y2="67.2" stroke="#2563eb" stroke-width="2.5" stroke-dasharray="4 3"/>
  <polygon points="96.0,67.2 85.7,56.9 106.3,56.9" fill="#2563eb"/>
  <circle cx="96.0" cy="294.4" r="12.3" fill="#4a90d9"/>
  <circle cx="176.0" cy="294.4" r="12.3" fill="rgba(74,144,217,0.45)"/>
  <circle cx="256.0" cy="294.4" r="12.3" fill="rgba(74,144,217,0.45)"/>
  <text x="96.0" y="294.4" text-anchor="middle" dominant-baseline="middle" font-size="20.2" font-weight="bold" fill="#1e40af" font-family="sans-serif">2</text>
  <line x1="96.0" y1="294.4" x2="137.6" y2="294.4" stroke="#2563eb" stroke-width="2.5" stroke-dasharray="4 3"/>
  <polygon points="137.6,294.4 127.3,304.7 127.3,284.1" fill="#2563eb"/>
  <text x="160" y="314" text-anchor="middle" font-size="13" fill="#4b5563" font-family="sans-serif">L</text>
</svg>