<svg xmlns="http://www.w3.org/2000/svg" width="320" height="320" viewBox="0 0 320 320">
  <rect width="320" height="320" fill="#f9fafb" rx="12"/>
  <path d="M249.6 70.4 L192.0 25.6 L121.6 25.6 L64.0 70.4 L57.6 121.6 L102.4 153.6 L160.0 166.4 L217.6 182.4 L262.4 217.6 L256.0 262.4 L198.4 297.6 L121.6 297.6 L70.4 262.4" stroke="#374151" stroke-width="70.4" stroke-linecap="round" stroke-linejoin="round" fill="none" opacity="0.12"/>
  <path d="M249.6 70.4 L192.0 25.6 L121.6 25.6 L64.0 70.4 L57.6 121.6 L102.4 153.6 L160.0 166.4 L217.6 182.4 L262.4 217.6 L256.0 262.4 L198.4 297.6 L121.6 297.6 L70.4 262.4" stroke="rgba(239,68,68,0.65)" stroke-width="13.4" stroke-linecap="round" stroke-linejoin="round" fill="none"/>
  <circle cx="249.6" cy="70.4" r="12.3" fill="#4a90d9"/>
  <circle cx="192.0" cy="25.6" r="12.3" fill="rgba(74,144,217,0.45)"/>
  <circle cx="121.6" cy="25.6" r="12.3" fill="rgba(74,144,217,0.45)"/>
  <circle cx="64.0" cy="70.4" r="12.3" fill="rgba(74,144,217,0.45)"/>
  <circle cx="57.6" cy="121.6" r="12.3" fill="rgba(74,144,217,0.45)"/>
  <circle cx="102.4" cy="153.6" r="12.3" fill="rgba(74,144,217,0.45)"/>
  <circle cx="160.0" cy="166.4" r="12.3" fill="rgba(74,144,217,0.45)"/>
  <circle cx="217.6" cy="182.4" r="12.3" fill="rgba(74,144,217,0.45)"/>
  <circle cx="262.4" cy="217.6" r="12.3" fill="rgba(74,144,217,0.45)"/>
  <circle cx="256.0" cy="262.4" r="12.3" fill="rgba(74,144,217,0.45)"/>
  <circle cx="198.4" cy="297.6" r="12.3" fill="rgba(74,144,217,0.45)"/>
  <circle cx="121.6" cy="297.6" r="12.3" fill="rgba(74,144,217,0.45)"/>
  <circle cx="70.4" cy="262.4" r="12.3" fill="rgba(74,144,217,0.45)"/>
  <line x1="249.6" y1="70.4" x2="279.0" y2="41.0" stroke="#2563eb" stroke-width="2.5" stroke-dasharray="4 3"/>
  <polygon points="279.0,41.0 279.0,55.5 264.5,41.0" fill="#2563eb"/>
  <text x="160" y="314" text-anchor="middle" font-size="13" fill="#4b5563" font-family="sans-serif">S</text>
</svg>