<svg xmlns="http://www.w3.org/2000/svg" width="320" height="320" viewBox="0 0 320 320">
  <rect width="320" height="320" fill="#f9fafb" rx="12"/>
  <path d="M57.6 25.6 L160.0 25.6 L262.4 25.6" stroke="#374151" stroke-width="70.4" stroke-linecap="round" stroke-linejoin="round" fill="none" opacity="0.12"/>
  <path d="M262.4 25.6 L160.0 160.0 L57.6 294.4" stroke="#374151" stroke-width="70.4" stroke-linecap="round" stroke-linejoin="round" fill="none" opacity="0.12"/>
  <path d="M57.6 294.4 L160.0 294.4 L262.4 294.4" stroke="#374151" stroke-width="70.4" stroke-linecap="round" stroke-linejoin="round" fill="none" opacity="0.12"/>
  <path d="M57.6 25.6 L160.0 25.6 L262.4 25.6" stroke="rgba(239,68,68,0.65)" stroke-width="13.4" stroke-linecap="round" stroke-linejoin="round" fill="none"/>
  <path d="M262.4 25.6 L160.0 160.0 L57.6 294.4" stroke="rgba(239,68,68,0.65)" stroke-width="13.4" stroke-linecap="round" stroke-linejoin="round" fill="none"/>
  <path d="M57.6 294.4 L160.0 294.4 L262.4 294.4" stroke="rgba(239,68,68,0.65)" stroke-width="13.4" stroke-linecap="round" stroke-linejoin="round" fill="none"/>
  <circle cx="57.6" cy="25.6" r="12.3" fill="#4a90d9"/>
  <circle cx="160.0" cy="25.6" r="12.3" fill="rgba(74,144,217,0.45)"/>
  <circle cx="262.4" cy="25.6" r="12.3" fill="rgba(74,144,217,0.45)"/>
  <text x="57.6" y="25.6" text-anchor="middle" dominant-baseline="middle" font-size="20.2" font-weight="bold" fill="#1e40af" font-family="sans-serif">1</text>
  <line x1="57.6" y1="25.6" x2="99.2" y2="25.6" stroke="#2563eb" stroke-width="2.5" stroke-dasharray="4 3"/>
  <polygon points="99.2,25.6 88.9,35.9 88.9,15.3" fill="#2563eb"/>
  <circle cx="262.4" cy="25.6" r="12.3" fill="#4a90d9"/>
  <circle cx="160.0" cy="160.0" r="12.3" fill="rgba(74,144,217,0.45)"/>
  <circle cx="57.6" cy="294.4" r="12.3" fill="rgba(74,144,217,0.45)"/>
  <text x="262.4" y="25.6" text-anchor="middle" dominant-baseline="middle" font-size="20.2" font-weight="bold" fill="#1e40af" font-family="sans-serif">2</text>
  <line x1="262.4" y1="25.6" x2="233.0" y2="-3.8" stroke="#2563eb" stroke-width="2.5" stroke-dasharray="4 3"/>
  <polygon points="233.0,-3.8 247.5,-3.8 233.0,10.7" fill="#2563eb"/>
  <circle cx="57.6" cy="294.4" r="12.3" fill="#4a90d9"/>
  <circle cx="160.0" cy="294.4" r="12.3" fill="rgba(74,144,217,0.45)"/>
  <circle cx="262.4" cy="294.4" r="12.3" fill="rgba(74,144,217,0.45)"/>
  <text x="57.6" y="294.4" text-anchor="middle" dominant-baseline="middle" font-size="20.2" font-weight="bold" fill="#1e40af" font-family="sans-serif">3</text>
  <line x1="57.6" y1="294.4" x2="99.2" y2="294.4" stroke="#2563eb" stroke-width="2.5" stroke-dasharray="4 3"/>
  <polygon points="99.2,294.4 88.9,304.7 88.9,284.1" fill="#2563eb"/>
  <text x="160" y="314" text-anchor="middle" font-size="13" fill="#4b5563" font-family="sans-serif">Z</text>
</svg>