<svg xmlns="http://www.w3.org/2000/svg" width="280" height="280" viewBox="0 0 280 280">
  <rect width="280" height="280" fill="#f9fafb" rx="10"/>
  <rect width="280" height="280" fill="none" rx="10" stroke="#f97316" stroke-width="2.5" opacity="0.4"/>
  <path d="M140.0 14.0 L75.6 30.8 L28.0 78.4 L11.2 140.0 L28.0 201.6 L75.6 249.2 L140.0 266.0 L204.4 249.2 L252.0 201.6 L268.8 140.0 L252.0 78.4 L204.4 30.8 L140.0 14.0" stroke="#374151" stroke-width="61.6" stroke-linecap="round" stroke-linejoin="round" fill="none" opacity="0.10"/>
  <path d="M140.0 14.0 L75.6 30.8 L28.0 78.4 L11.2 140.0 L28.0 201.6 L75.6 249.2 L140.0 266.0 L204.4 249.2 L252.0 201.6 L268.8 140.0 L252.0 78.4 L204.4 30.8 L140.0 14.0" stroke="#f97316" stroke-width="11.8" stroke-linecap="round" stroke-linejoin="round" fill="none" opacity="0.7"/>
  <circle cx="140.0" cy="14.0" r="10.0" fill="#4a90d9"/>
  <circle cx="75.6" cy="30.8" r="10.0" fill="rgba(74,144,217,0.4)"/>
  <circle cx="28.0" cy="78.4" r="10.0" fill="rgba(74,144,217,0.4)"/>
  <circle cx="11.2" cy="140.0" r="10.0" fill="rgba(74,144,217,0.4)"/>
  <circle cx="28.0" cy="201.6" r="10.0" fill="rgba(74,144,217,0.4)"/>
  <circle cx="75.6" cy="249.2" r="10.0" fill="rgba(74,144,217,0.4)"/>
  <circle cx="140.0" cy="266.0" r="10.0" fill="rgba(74,144,217,0.4)"/>
  <circle cx="204.4" cy="249.2" r="10.0" fill="rgba(74,144,217,0.4)"/>
  <circle cx="252.0" cy="201.6" r="10.0" fill="rgba(74,144,217,0.4)"/>
  <circle cx="268.8" cy="140.0" r="10.0" fill="rgba(74,144,217,0.4)"/>
  <circle cx="252.0" cy="78.4" r="10.0" fill="rgba(74,144,217,0.4)"/>
  <circle cx="204.4" cy="30.8" r="10.0" fill="rgba(74,144,217,0.4)"/>
  <circle cx="140.0" cy="14.0" r="10.0" fill="rgba(74,144,217,0.4)"/>
  <line x1="140.0" y1="14.0" x2="104.8" y2="23.2" stroke="#2563eb" stroke-width="2.2" stroke-dasharray="4 3"/>
  <polygon points="104.8,23.2 111.2,12.2 115.8,29.6" fill="#2563eb"/>
  <text x="140" y="275" text-anchor="middle" font-size="12" fill="#f97316" font-weight="bold" font-family="sans-serif">Medio</text>
</svg>