<svg xmlns="http://www.w3.org/2000/svg" width="280" height="280" viewBox="0 0 280 280">
  <rect width="280" height="280" fill="#f9fafb" rx="10"/>
  <rect width="280" height="280" fill="none" rx="10" stroke="#f97316" stroke-width="2.5" opacity="0.4"/>
  <path d="M70.0 61.6 L70.0 140.0 L70.0 218.4" stroke="#374151" stroke-width="61.6" stroke-linecap="round" stroke-linejoin="round" fill="none" opacity="0.10"/>
  <path d="M70.0 61.6 L123.2 56.0 L162.4 84.0 L179.2 123.2" stroke="#374151" stroke-width="61.6" stroke-linecap="round" stroke-linejoin="round" fill="none" opacity="0.10"/>
  <path d="M70.0 61.6 L70.0 140.0 L70.0 218.4" stroke="#f97316" stroke-width="11.8" stroke-linecap="round" stroke-linejoin="round" fill="none" opacity="0.7"/>
  <path d="M70.0 61.6 L123.2 56.0 L162.4 84.0 L179.2 123.2" stroke="#f97316" stroke-width="11.8" stroke-linecap="round" stroke-linejoin="round" fill="none" opacity="0.7"/>
  <circle cx="70.0" cy="61.6" r="10.0" fill="#4a90d9"/>
  <circle cx="70.0" cy="140.0" r="10.0" fill="rgba(74,144,217,0.4)"/>
  <circle cx="70.0" cy="218.4" r="10.0" fill="rgba(74,144,217,0.4)"/>
  <text x="70.0" y="61.6" text-anchor="middle" dominant-baseline="middle" font-size="15.5" font-weight="bold" fill="#1e40af" font-family="sans-serif">1</text>
  <line x1="70.0" y1="61.6" x2="70.0" y2="98.0" stroke="#2563eb" stroke-width="2.2" stroke-dasharray="4 3"/>
  <polygon points="70.0,98.0 61.0,89.0 79.0,89.0" fill="#2563eb"/>
  <circle cx="70.0" cy="61.6" r="10.0" fill="#4a90d9"/>
  <circle cx="123.2" cy="56.0" r="10.0" fill="rgba(74,144,217,0.4)"/>
  <circle cx="162.4" cy="84.0" r="10.0" fill="rgba(74,144,217,0.4)"/>
  <circle cx="179.2" cy="123.2" r="10.0" fill="rgba(74,144,217,0.4)"/>
  <text x="70.0" y="61.6" text-anchor="middle" dominant-baseline="middle" font-size="15.5" font-weight="bold" fill="#1e40af" font-family="sans-serif">2</text>
  <line x1="70.0" y1="61.6" x2="106.2" y2="57.8" stroke="#2563eb" stroke-width="2.2" stroke-dasharray="4 3"/>
  <polygon points="106.2,57.8 98.2,67.7 96.3,49.8" fill="#2563eb"/>
  <text x="140" y="275" text-anchor="middle" font-size="12" fill="#f97316" font-weight="bold" font-family="sans-serif">Medio</text>
</svg>