<svg xmlns="http://www.w3.org/2000/svg" width="320" height="320" viewBox="0 0 320 320">
  <rect width="320" height="320" fill="#f9fafb" rx="12"/>
  <path d="M160.0 64.0 L96.0 83.2 L64.0 134.4 L64.0 185.6 L96.0 236.8 L160.0 256.0 L224.0 236.8 L256.0 185.6 L256.0 134.4 L224.0 83.2 L160.0 64.0" stroke="#374151" stroke-width="70.4" stroke-linecap="round" stroke-linejoin="round" fill="none" opacity="0.12"/>
  <path d="M160.0 64.0 L96.0 83.2 L64.0 134.4 L64.0 185.6 L96.0 236.8 L160.0 256.0 L224.0 236.8 L256.0 185.6 L256.0 134.4 L224.0 83.2 L160.0 64.0" stroke="rgba(239,68,68,0.65)" stroke-width="13.4" stroke-linecap="round" stroke-linejoin="round" fill="none"/>
  <circle cx="160.0" cy="64.0" r="12.3" fill="#4a90d9"/>
  <circle cx="96.0" cy="83.2" r="12.3" fill="rgba(74,144,217,0.45)"/>
  <circle cx="64.0" cy="134.4" r="12.3" fill="rgba(74,144,217,0.45)"/>
  <circle cx="64.0" cy="185.6" r="12.3" fill="rgba(74,144,217,0.45)"/>
  <circle cx="96.0" cy="236.8" r="12.3" fill="rgba(74,144,217,0.45)"/>
  <circle cx="160.0" cy="256.0" r="12.3" fill="rgba(74,144,217,0.45)"/>
  <circle cx="224.0" cy="236.8" r="12.3" fill="rgba(74,144,217,0.45)"/>
  <circle cx="256.0" cy="185.6" r="12.3" fill="rgba(74,144,217,0.45)"/>
  <circle cx="256.0" cy="134.4" r="12.3" fill="rgba(74,144,217,0.45)"/>
  <circle cx="224.0" cy="83.2" r="12.3" fill="rgba(74,144,217,0.45)"/>
  <circle cx="160.0" cy="64.0" r="12.3" fill="rgba(74,144,217,0.45)"/>
  <line x1="160.0" y1="64.0" x2="130.6" y2="34.6" stroke="#2563eb" stroke-width="2.5" stroke-dasharray="4 3"/>
  <polygon points="130.6,34.6 145.1,34.6 130.6,49.1" fill="#2563eb"/>
  <text x="160" y="314" text-anchor="middle" font-size="13" fill="#4b5563" font-family="sans-serif">o (min)</text>
</svg>