<svg xmlns="http://www.w3.org/2000/svg" width="280" height="280" viewBox="0 0 280 280">
  <rect width="280" height="280" fill="#f9fafb" rx="10"/>
  <rect width="280" height="280" fill="none" rx="10" stroke="#22c55e" stroke-width="2.5" opacity="0.4"/>
  <path d="M28.0 140.0 L64.4 140.0 L103.6 140.0 L140.0 140.0 L176.4 140.0 L215.6 140.0 L252.0 140.0" stroke="#374151" stroke-width="61.6" stroke-linecap="round" stroke-linejoin="round" fill="none" opacity="0.10"/>
  <path d="M28.0 140.0 L64.4 140.0 L103.6 140.0 L140.0 140.0 L176.4 140.0 L215.6 140.0 L252.0 140.0" stroke="#22c55e" stroke-width="11.8" stroke-linecap="round" stroke-linejoin="round" fill="none" opacity="0.7"/>
  <circle cx="28.0" cy="140.0" r="10.0" fill="#4a90d9"/>
  <circle cx="64.4" cy="140.0" r="10.0" fill="rgba(74,144,217,0.4)"/>
  <circle cx="103.6" cy="140.0" r="10.0" fill="rgba(74,144,217,0.4)"/>
  <circle cx="140.0" cy="140.0" r="10.0" fill="rgba(74,144,217,0.4)"/>
  <circle cx="176.4" cy="140.0" r="10.0" fill="rgba(74,144,217,0.4)"/>
  <circle cx="215.6" cy="140.0" r="10.0" fill="rgba(74,144,217,0.4)"/>
  <circle cx="252.0" cy="140.0" r="10.0" fill="rgba(74,144,217,0.4)"/>
  <line x1="28.0" y1="140.0" x2="64.4" y2="140.0" stroke="#2563eb" stroke-width="2.2" stroke-dasharray="4 3"/>
  <polygon points="64.4,140.0 55.4,149.0 55.4,131.0" fill="#2563eb"/>
  <text x="140" y="275" text-anchor="middle" font-size="12" fill="#22c55e" font-weight="bold" font-family="sans-serif">Fácil</text>
</svg>