<svg xmlns="http://www.w3.org/2000/svg" width="280" height="280" viewBox="0 0 280 280">
  <rect width="280" height="280" fill="#f9fafb" rx="10"/>
  <rect width="280" height="280" fill="none" rx="10" stroke="#22c55e" stroke-width="2.5" opacity="0.4"/>
  <path d="M201.6 112.0 L184.8 78.4 L156.8 56.0 L123.2 53.2 L89.6 67.2 L61.6 106.4 L56.0 145.6 L72.8 184.8 L106.4 210.0 L151.2 218.4 L190.4 201.6 L207.2 168.0" stroke="#374151" stroke-width="61.6" stroke-linecap="round" stroke-linejoin="round" fill="none" opacity="0.10"/>
  <path d="M201.6 61.6 L201.6 112.0 L201.6 162.4 L201.6 218.4" stroke="#374151" stroke-width="61.6" stroke-linecap="round" stroke-linejoin="round" fill="none" opacity="0.10"/>
  <path d="M201.6 112.0 L184.8 78.4 L156.8 56.0 L123.2 53.2 L89.6 67.2 L61.6 106.4 L56.0 145.6 L72.8 184.8 L106.4 210.0 L151.2 218.4 L190.4 201.6 L207.2 168.0" stroke="#22c55e" stroke-width="11.8" stroke-linecap="round" stroke-linejoin="round" fill="none" opacity="0.7"/>
  <path d="M201.6 61.6 L201.6 112.0 L201.6 162.4 L201.6 218.4" stroke="#22c55e" stroke-width="11.8" stroke-linecap="round" stroke-linejoin="round" fill="none" opacity="0.7"/>
  <circle cx="201.6" cy="112.0" r="10.0" fill="#4a90d9"/>
  <circle cx="184.8" cy="78.4" r="10.0" fill="rgba(74,144,217,0.4)"/>
  <circle cx="156.8" cy="56.0" r="10.0" fill="rgba(74,144,217,0.4)"/>
  <circle cx="123.2" cy="53.2" r="10.0" fill="rgba(74,144,217,0.4)"/>
  <circle cx="89.6" cy="67.2" r="10.0" fill="rgba(74,144,217,0.4)"/>
  <circle cx="61.6" cy="106.4" r="10.0" fill="rgba(74,144,217,0.4)"/>
  <circle cx="56.0" cy="145.6" r="10.0" fill="rgba(74,144,217,0.4)"/>
  <circle cx="72.8" cy="184.8" r="10.0" fill="rgba(74,144,217,0.4)"/>
  <circle cx="106.4" cy="210.0" r="10.0" fill="rgba(74,144,217,0.4)"/>
  <circle cx="151.2" cy="218.4" r="10.0" fill="rgba(74,144,217,0.4)"/>
  <circle cx="190.4" cy="201.6" r="10.0" fill="rgba(74,144,217,0.4)"/>
  <circle cx="207.2" cy="168.0" r="10.0" fill="rgba(74,144,217,0.4)"/>
  <text x="201.6" y="112.0" text-anchor="middle" dominant-baseline="middle" font-size="15.5" font-weight="bold" fill="#1e40af" font-family="sans-serif">1</text>
  <line x1="201.6" y1="112.0" x2="185.3" y2="79.4" stroke="#2563eb" stroke-width="2.2" stroke-dasharray="4 3"/>
  <polygon points="185.3,79.4 197.4,83.5 181.3,91.5" fill="#2563eb"/>
  <circle cx="201.6" cy="61.6" r="10.0" fill="#4a90d9"/>
  <circle cx="201.6" cy="112.0" r="10.0" fill="rgba(74,144,217,0.4)"/>
  <circle cx="201.6" cy="162.4" r="10.0" fill="rgba(74,144,217,0.4)"/>
  <circle cx="201.6" cy="218.4" r="10.0" fill="rgba(74,144,217,0.4)"/>
  <text x="201.6" y="61.6" text-anchor="middle" dominant-baseline="middle" font-size="15.5" font-weight="bold" fill="#1e40af" font-family="sans-serif">2</text>
  <line x1="201.6" y1="61.6" x2="201.6" y2="98.0" stroke="#2563eb" stroke-width="2.2" stroke-dasharray="4 3"/>
  <polygon points="201.6,98.0 192.6,89.0 210.6,89.0" fill="#2563eb"/>
  <text x="140" y="275" text-anchor="middle" font-size="12" fill="#22c55e" font-weight="bold" font-family="sans-serif">Fácil</text>
</svg>