<svg xmlns="http://www.w3.org/2000/svg" width="280" height="280" viewBox="0 0 280 280">
  <rect width="280" height="280" fill="#f9fafb" rx="10"/>
  <rect width="280" height="280" fill="none" rx="10" stroke="#22c55e" stroke-width="2.5" opacity="0.4"/>
  <path d="M218.4 61.6 L196.0 39.2 L168.0 22.4 L134.4 19.6 L106.4 22.4 L78.4 36.4 L56.0 61.6 L47.6 89.6 L50.4 106.4 L70.0 123.2 L89.6 134.4 L117.6 140.0 L140.0 145.6 L168.0 154.0 L190.4 159.6 L212.8 176.4 L229.6 190.4 L232.4 212.8 L224.0 229.6 L201.6 252.0 L173.6 260.4 L140.0 260.4 L106.4 260.4 L78.4 246.4 L61.6 229.6" stroke="#374151" stroke-width="61.6" stroke-linecap="round" stroke-linejoin="round" fill="none" opacity="0.10"/>
  <path d="M218.4 61.6 L196.0 39.2 L168.0 22.4 L134.4 19.6 L106.4 22.4 L78.4 36.4 L56.0 61.6 L47.6 89.6 L50.4 106.4 L70.0 123.2 L89.6 134.4 L117.6 140.0 L140.0 145.6 L168.0 154.0 L190.4 159.6 L212.8 176.4 L229.6 190.4 L232.4 212.8 L224.0 229.6 L201.6 252.0 L173.6 260.4 L140.0 260.4 L106.4 260.4 L78.4 246.4 L61.6 229.6" stroke="#22c55e" stroke-width="11.8" stroke-linecap="round" stroke-linejoin="round" fill="none" opacity="0.7"/>
  <circle cx="218.4" cy="61.6" r="10.0" fill="#4a90d9"/>
  <circle cx="196.0" cy="39.2" r="10.0" fill="rgba(74,144,217,0.4)"/>
  <circle cx="168.0" cy="22.4" r="10.0" fill="rgba(74,144,217,0.4)"/>
  <circle cx="134.4" cy="19.6" r="10.0" fill="rgba(74,144,217,0.4)"/>
  <circle cx="106.4" cy="22.4" r="10.0" fill="rgba(74,144,217,0.4)"/>
  <circle cx="78.4" cy="36.4" r="10.0" fill="rgba(74,144,217,0.4)"/>
  <circle cx="56.0" cy="61.6" r="10.0" fill="rgba(74,144,217,0.4)"/>
  <circle cx="47.6" cy="89.6" r="10.0" fill="rgba(74,144,217,0.4)"/>
  <circle cx="50.4" cy="106.4" r="10.0" fill="rgba(74,144,217,0.4)"/>
  <circle cx="70.0" cy="123.2" r="10.0" fill="rgba(74,144,217,0.4)"/>
  <circle cx="89.6" cy="134.4" r="10.0" fill="rgba(74,144,217,0.4)"/>
  <circle cx="117.6" cy="140.0" r="10.0" fill="rgba(74,144,217,0.4)"/>
  <circle cx="140.0" cy="145.6" r="10.0" fill="rgba(74,144,217,0.4)"/>
  <circle cx="168.0" cy="154.0" r="10.0" fill="rgba(74,144,217,0.4)"/>
  <circle cx="190.4" cy="159.6" r="10.0" fill="rgba(74,144,217,0.4)"/>
  <circle cx="212.8" cy="176.4" r="10.0" fill="rgba(74,144,217,0.4)"/>
  <circle cx="229.6" cy="190.4" r="10.0" fill="rgba(74,144,217,0.4)"/>
  <circle cx="232.4" cy="212.8" r="10.0" fill="rgba(74,144,217,0.4)"/>
  <circle cx="224.0" cy="229.6" r="10.0" fill="rgba(74,144,217,0.4)"/>
  <circle cx="201.6" cy="252.0" r="10.0" fill="rgba(74,144,217,0.4)"/>
  <circle cx="173.6" cy="260.4" r="10.0" fill="rgba(74,144,217,0.4)"/>
  <circle cx="140.0" cy="260.4" r="10.0" fill="rgba(74,144,217,0.4)"/>
  <circle cx="106.4" cy="260.4" r="10.0" fill="rgba(74,144,217,0.4)"/>
  <circle cx="78.4" cy="246.4" r="10.0" fill="rgba(74,144,217,0.4)"/>
  <circle cx="61.6" cy="229.6" r="10.0" fill="rgba(74,144,217,0.4)"/>
  <line x1="218.4" y1="61.6" x2="192.7" y2="35.9" stroke="#2563eb" stroke-width="2.2" stroke-dasharray="4 3"/>
  <polygon points="192.7,35.9 205.4,35.9 192.7,48.6" fill="#2563eb"/>
  <text x="140" y="275" text-anchor="middle" font-size="12" fill="#22c55e" font-weight="bold" font-family="sans-serif">Fácil</text>
</svg>