<svg xmlns="http://www.w3.org/2000/svg" width="280" height="280" viewBox="0 0 280 280">
  <rect width="280" height="280" fill="#f9fafb" rx="10"/>
  <rect width="280" height="280" fill="none" rx="10" stroke="#ef4444" stroke-width="2.5" opacity="0.4"/>
  <path d="M140.0 14.0 L140.0 266.0 L140.0 14.0" stroke="#374151" stroke-width="61.6" stroke-linecap="round" stroke-linejoin="round" fill="none" opacity="0.10"/>
  <path d="M162.4 201.6 L218.4 257.6" stroke="#374151" stroke-width="61.6" stroke-linecap="round" stroke-linejoin="round" fill="none" opacity="0.10"/>
  <path d="M140.0 14.0 L140.0 266.0 L140.0 14.0" stroke="#ef4444" stroke-width="11.8" stroke-linecap="round" stroke-linejoin="round" fill="none" opacity="0.7"/>
  <path d="M162.4 201.6 L218.4 257.6" stroke="#ef4444" stroke-width="11.8" stroke-linecap="round" stroke-linejoin="round" fill="none" opacity="0.7"/>
  <circle cx="140.0" cy="14.0" r="10.0" fill="#4a90d9"/>
  <circle cx="140.0" cy="266.0" r="10.0" fill="rgba(74,144,217,0.4)"/>
  <circle cx="140.0" cy="14.0" r="10.0" fill="rgba(74,144,217,0.4)"/>
  <text x="140.0" y="14.0" text-anchor="middle" dominant-baseline="middle" font-size="15.5" font-weight="bold" fill="#1e40af" font-family="sans-serif">1</text>
  <line x1="140.0" y1="14.0" x2="140.0" y2="50.4" stroke="#2563eb" stroke-width="2.2" stroke-dasharray="4 3"/>
  <polygon points="140.0,50.4 131.0,41.4 149.0,41.4" fill="#2563eb"/>
  <circle cx="162.4" cy="201.6" r="10.0" fill="#4a90d9"/>
  <circle cx="218.4" cy="257.6" r="10.0" fill="rgba(74,144,217,0.4)"/>
  <text x="162.4" y="201.6" text-anchor="middle" dominant-baseline="middle" font-size="15.5" font-weight="bold" fill="#1e40af" font-family="sans-serif">2</text>
  <line x1="162.4" y1="201.6" x2="188.1" y2="227.3" stroke="#2563eb" stroke-width="2.2" stroke-dasharray="4 3"/>
  <polygon points="188.1,227.3 175.4,227.3 188.1,214.6" fill="#2563eb"/>
  <text x="140" y="275" text-anchor="middle" font-size="12" fill="#ef4444" font-weight="bold" font-family="sans-serif">Difícil</text>
</svg>